<?xml version="1.0"?>
<svg xmlns="http://www.w3.org/2000/svg" height="512px" viewBox="0 -96 512 512" width="512px"><g><g fill="#82b1ff"><path d="m32 0h448c17.671875 0 32 14.328125 32 32s-14.328125 32-32 32h-448c-17.671875 0-32-14.328125-32-32s14.328125-32 32-32zm0 0" data-original="#82B1FF" class="active-path" data-old_color="#82B1FF" fill="#FFFFFF"/><path d="m32 128h448c17.671875 0 32 14.328125 32 32s-14.328125 32-32 32h-448c-17.671875 0-32-14.328125-32-32s14.328125-32 32-32zm0 0" data-original="#82B1FF" class="active-path" data-old_color="#82B1FF" fill="#FFFFFF"/><path d="m32 256h448c17.671875 0 32 14.328125 32 32s-14.328125 32-32 32h-448c-17.671875 0-32-14.328125-32-32s14.328125-32 32-32zm0 0" data-original="#82B1FF" class="active-path" data-old_color="#82B1FF" fill="#FFFFFF"/></g></g> </svg>
